<svg xmlns="http://www.w3.org/2000/svg" xmlns:xlink="http://www.w3.org/1999/xlink" width="500" zoomAndPan="magnify" viewBox="0 0 375 374.999991" height="500" preserveAspectRatio="xMidYMid meet" version="1.0"><path fill="#ffffff" d="M 124.976562 37.5 C 76.738281 37.5 37.5 76.773438 37.5 125.023438 L 37.5 250.023438 C 37.5 298.261719 76.773438 337.5 125.023438 337.5 L 250.023438 337.5 C 298.261719 337.5 337.5 298.226562 337.5 249.976562 L 337.5 124.976562 C 337.5 76.738281 298.226562 37.5 249.976562 37.5 Z M 275 87.5 C 281.898438 87.5 287.5 93.101562 287.5 100 C 287.5 106.898438 281.898438 112.5 275 112.5 C 268.101562 112.5 262.5 106.898438 262.5 100 C 262.5 93.101562 268.101562 87.5 275 87.5 Z M 187.5 112.5 C 228.863281 112.5 262.5 146.136719 262.5 187.5 C 262.5 228.863281 228.863281 262.5 187.5 262.5 C 146.136719 262.5 112.5 228.863281 112.5 187.5 C 112.5 146.136719 146.136719 112.5 187.5 112.5 Z M 187.5 137.5 C 185.863281 137.5 184.230469 137.582031 182.597656 137.742188 C 180.96875 137.902344 179.351562 138.140625 177.746094 138.460938 C 176.140625 138.78125 174.554688 139.175781 172.984375 139.652344 C 171.417969 140.128906 169.878906 140.679688 168.367188 141.304688 C 166.851562 141.933594 165.375 142.632812 163.929688 143.402344 C 162.484375 144.175781 161.082031 145.015625 159.722656 145.925781 C 158.359375 146.835938 157.046875 147.8125 155.78125 148.847656 C 154.515625 149.886719 153.300781 150.988281 152.144531 152.144531 C 150.988281 153.300781 149.886719 154.515625 148.847656 155.78125 C 147.8125 157.046875 146.835938 158.359375 145.925781 159.722656 C 145.015625 161.082031 144.175781 162.484375 143.402344 163.929688 C 142.632812 165.375 141.933594 166.851562 141.304688 168.367188 C 140.679688 169.878906 140.128906 171.417969 139.652344 172.984375 C 139.175781 174.554688 138.78125 176.140625 138.460938 177.746094 C 138.140625 179.351562 137.902344 180.96875 137.742188 182.597656 C 137.582031 184.230469 137.5 185.863281 137.5 187.5 C 137.5 189.136719 137.582031 190.769531 137.742188 192.402344 C 137.902344 194.03125 138.140625 195.648438 138.460938 197.253906 C 138.78125 198.859375 139.175781 200.445312 139.652344 202.015625 C 140.128906 203.582031 140.679688 205.121094 141.304688 206.632812 C 141.933594 208.148438 142.632812 209.625 143.402344 211.070312 C 144.175781 212.515625 145.015625 213.917969 145.925781 215.277344 C 146.835938 216.640625 147.8125 217.953125 148.847656 219.21875 C 149.886719 220.484375 150.988281 221.699219 152.144531 222.855469 C 153.300781 224.011719 154.515625 225.113281 155.78125 226.152344 C 157.046875 227.1875 158.359375 228.164062 159.722656 229.074219 C 161.082031 229.984375 162.484375 230.824219 163.929688 231.597656 C 165.375 232.367188 166.851562 233.066406 168.367188 233.695312 C 169.878906 234.320312 171.417969 234.871094 172.984375 235.347656 C 174.554688 235.824219 176.140625 236.21875 177.746094 236.539062 C 179.351562 236.859375 180.96875 237.097656 182.597656 237.257812 C 184.230469 237.417969 185.863281 237.5 187.5 237.5 C 189.136719 237.5 190.769531 237.417969 192.402344 237.257812 C 194.03125 237.097656 195.648438 236.859375 197.253906 236.539062 C 198.859375 236.21875 200.445312 235.824219 202.015625 235.347656 C 203.582031 234.871094 205.121094 234.320312 206.632812 233.695312 C 208.148438 233.066406 209.625 232.367188 211.070312 231.597656 C 212.515625 230.824219 213.917969 229.984375 215.277344 229.074219 C 216.640625 228.164062 217.953125 227.1875 219.21875 226.152344 C 220.484375 225.113281 221.699219 224.011719 222.855469 222.855469 C 224.011719 221.699219 225.113281 220.484375 226.152344 219.21875 C 227.1875 217.953125 228.164062 216.640625 229.074219 215.277344 C 229.984375 213.917969 230.824219 212.515625 231.597656 211.070312 C 232.367188 209.625 233.066406 208.148438 233.695312 206.632812 C 234.320312 205.121094 234.871094 203.582031 235.347656 202.015625 C 235.824219 200.445312 236.21875 198.859375 236.539062 197.253906 C 236.859375 195.648438 237.097656 194.03125 237.257812 192.402344 C 237.417969 190.769531 237.5 189.136719 237.5 187.5 C 237.5 185.863281 237.417969 184.230469 237.257812 182.597656 C 237.097656 180.96875 236.859375 179.351562 236.539062 177.746094 C 236.21875 176.140625 235.824219 174.554688 235.347656 172.984375 C 234.871094 171.417969 234.320312 169.878906 233.695312 168.367188 C 233.066406 166.851562 232.367188 165.375 231.597656 163.929688 C 230.824219 162.484375 229.984375 161.082031 229.074219 159.722656 C 228.164062 158.359375 227.1875 157.046875 226.152344 155.78125 C 225.113281 154.515625 224.011719 153.300781 222.855469 152.144531 C 221.699219 150.988281 220.484375 149.886719 219.21875 148.847656 C 217.953125 147.8125 216.640625 146.835938 215.277344 145.925781 C 213.917969 145.015625 212.515625 144.175781 211.070312 143.402344 C 209.625 142.632812 208.148438 141.933594 206.632812 141.304688 C 205.121094 140.679688 203.582031 140.128906 202.015625 139.652344 C 200.445312 139.175781 198.859375 138.78125 197.253906 138.460938 C 195.648438 138.140625 194.03125 137.902344 192.402344 137.742188 C 190.769531 137.582031 189.136719 137.5 187.5 137.5 Z M 187.5 137.5 " fill-opacity="1" fill-rule="nonzero"/></svg>